<?xml version="1.0" encoding="iso-8859-1"?>
<!-- Generator: Adobe Illustrator 19.0.0, SVG Export Plug-In . SVG Version: 6.00 Build 0)  -->
<svg version="1.1" id="Layer_1" xmlns="http://www.w3.org/2000/svg" xmlns:xlink="http://www.w3.org/1999/xlink" x="0px" y="0px"
	 viewBox="0 0 486.4 486.4" style="enable-background:new 0 0 486.4 486.4;" xml:space="preserve">
<g>
	<path d="M12.406,167.484c-1.084,0-2.187-0.187-3.264-0.581c-4.927-1.803-7.46-7.259-5.656-12.186
		c3.325-9.088,7.243-18.074,11.643-26.707c2.383-4.674,8.107-6.531,12.778-4.149c4.675,2.382,6.532,8.103,4.15,12.778
		c-4.054,7.954-7.664,16.234-10.728,24.607C19.92,165.095,16.281,167.484,12.406,167.484z"/>
</g>
<g>
	<circle style="fill:#D71920;" cx="243.2" cy="243.2" r="69.72"/>
	<path d="M243.2,322.42c-43.681,0-79.219-35.538-79.219-79.22s35.538-79.22,79.219-79.22s79.219,35.538,79.219,79.22
		S286.881,322.42,243.2,322.42z M243.2,182.98c-33.205,0-60.219,27.014-60.219,60.22s27.015,60.22,60.219,60.22
		s60.219-27.014,60.219-60.22S276.405,182.98,243.2,182.98z"/>
	<circle style="fill:#3B4D81;" cx="76.431" cy="76.431" r="30.677"/>
	<path d="M415.169,71.232C369.234,25.297,308.161,0,243.2,0c-51.321,0-100.01,15.641-141.393,45.31
		c-6.924-5.656-15.759-9.056-25.376-9.056c-22.153,0-40.176,18.023-40.176,40.177c0,22.153,18.023,40.176,40.176,40.176
		c22.154,0,40.177-18.023,40.177-40.176c0-5.676-1.19-11.077-3.322-15.976C151.337,33.306,196.063,19,243.2,19
		c123.624,0,224.2,100.576,224.2,224.2S366.824,467.4,243.2,467.4S19,366.824,19,243.2c0-12.572,1.048-25.178,3.115-37.468
		c0.87-5.174-2.618-10.074-7.792-10.944c-5.178-0.873-10.075,2.619-10.944,7.792C1.136,215.909,0,229.575,0,243.2
		c0,64.961,25.297,126.034,71.231,171.968C117.166,461.103,178.239,486.4,243.2,486.4s126.034-25.297,171.969-71.232
		C461.103,369.234,486.4,308.161,486.4,243.2S461.103,117.166,415.169,71.232z M76.43,97.607c-11.676,0-21.176-9.5-21.176-21.176
		s9.5-21.177,21.176-21.177c11.677,0,21.177,9.5,21.177,21.177S88.108,97.607,76.43,97.607z"/>
	<g>
		<path d="M213.639,252.7c-5.246,0-9.5-4.253-9.5-9.5c0-21.538,17.523-39.061,39.061-39.061c5.246,0,9.5,4.253,9.5,9.5
			s-4.254,9.5-9.5,9.5c-11.062,0-20.061,8.999-20.061,20.061C223.139,248.447,218.885,252.7,213.639,252.7z"/>
	</g>
</g>
<g>
</g>
<g>
</g>
<g>
</g>
<g>
</g>
<g>
</g>
<g>
</g>
<g>
</g>
<g>
</g>
<g>
</g>
<g>
</g>
<g>
</g>
<g>
</g>
<g>
</g>
<g>
</g>
<g>
</g>
</svg>
