<?xml version="1.0" encoding="UTF-8" standalone="no"?>
<!-- Created with Inkscape (http://www.inkscape.org/) -->

<svg
   xmlns:dc="http://purl.org/dc/elements/1.1/"
   xmlns:cc="http://creativecommons.org/ns#"
   xmlns:rdf="http://www.w3.org/1999/02/22-rdf-syntax-ns#"
   xmlns:svg="http://www.w3.org/2000/svg"
   xmlns="http://www.w3.org/2000/svg"
   xmlns:sodipodi="http://sodipodi.sourceforge.net/DTD/sodipodi-0.dtd"
   xmlns:inkscape="http://www.inkscape.org/namespaces/inkscape"
   width="500"
   height="500"
   viewBox="0 0 500.00001 500.00001"
   id="svg2"
   version="1.1"
   inkscape:version="0.91 r13725"
   sodipodi:docname="electron-file-browser-ink.svg">
  <defs
     id="defs4" />
  <sodipodi:namedview
     id="base"
     pagecolor="#ffffff"
     bordercolor="#666666"
     borderopacity="1.0"
     inkscape:pageopacity="0.0"
     inkscape:pageshadow="2"
     inkscape:zoom="0.32094727"
     inkscape:cx="1017.3029"
     inkscape:cy="801.46161"
     inkscape:document-units="px"
     inkscape:current-layer="layer1"
     showgrid="false"
     units="px"
     inkscape:window-width="1867"
     inkscape:window-height="1056"
     inkscape:window-x="53"
     inkscape:window-y="24"
     inkscape:window-maximized="1" />
  <metadata
     id="metadata7">
    <rdf:RDF>
      <cc:Work
         rdf:about="">
        <dc:format>image/svg+xml</dc:format>
        <dc:type
           rdf:resource="http://purl.org/dc/dcmitype/StillImage" />
        <dc:title></dc:title>
      </cc:Work>
    </rdf:RDF>
  </metadata>
  <g
     inkscape:label="Layer 1"
     inkscape:groupmode="layer"
     id="layer1"
     transform="translate(0,-552.36214)">
    <g
       id="g6142"
       transform="translate(-108.31432,423.00776)">
      <path
         d="m 535.09166,202.57808 c -47.21936,-47.21936 -110,-73.22368 -176.77734,-73.22368 -52.75596,0 -102.80633,16.07833 -145.34642,46.57689 -7.1176,-5.81414 -16.19963,-9.30921 -26.08553,-9.30921 -22.77241,0 -41.29934,18.52693 -41.29934,41.30037 0,22.77241 18.52693,41.29934 41.29934,41.29934 22.77344,0 41.30037,-18.52693 41.30037,-41.29934 0,-5.8347 -1.22327,-11.38672 -3.41488,-16.4227 39.11492,-27.9081 85.09148,-42.6141 133.54646,-42.6141 127.08059,0 230.46875,103.38816 230.46875,230.46875 0,127.08059 -103.38816,230.46876 -230.46875,230.46876 -127.08059,0 -230.46875,-103.38817 -230.46875,-230.46876 0,-12.92352 1.0773,-25.88199 3.2021,-38.51562 0.89432,-5.31867 -2.6912,-10.35568 -8.00987,-11.25 -5.32278,-0.89741 -10.3567,2.69222 -11.25,8.00986 -2.30572,13.70169 -3.47348,27.7498 -3.47348,41.75576 0,66.77734 26.00432,129.55798 73.22266,176.77632 47.21936,47.21934 110,73.22364 176.77734,73.22364 66.77734,0 129.55798,-26.0043 176.77734,-73.22364 47.21834,-47.21834 73.22266,-109.99898 73.22266,-176.77632 0,-66.77734 -26.00432,-129.55798 -73.22266,-176.77632 z m -348.21032,27.11246 c -12.00246,0 -21.76809,-9.76562 -21.76809,-21.76809 0,-12.00247 9.76563,-21.76912 21.76809,-21.76912 12.0035,0 21.76912,9.76563 21.76912,21.76912 0,12.0035 -9.76459,21.76809 -21.76912,21.76809 z"
         id="path4907"
         inkscape:connector-curvature="0" />
      <path
         inkscape:connector-curvature="0"
         id="path5561"
         overflow="visible"
         white-space="normal"
         font-weight="400"
         d="m 269.95295,252.39173 c -15.14241,0 -28.28453,10.84514 -31.16192,25.70655 l -28.59983,147.83385 0,6.32338 0,10.58023 0,31.74067 c 0,17.4051 14.33557,31.74066 31.74067,31.74066 l 232.7649,0 c 17.4051,0 31.74067,-14.33556 31.74067,-31.74066 l 0,-31.74067 0,-10.58023 0,-6.32338 -28.59961,-147.83385 c -2.8774,-14.86141 -16.01951,-25.70655 -31.16214,-25.70655 l -176.72274,0 z m 0,21.16044 176.72274,0 c 5.12929,0 9.39989,3.52575 10.37369,8.55517 l 23.02024,118.98603 c -1.75632,-0.30683 -3.53548,-0.57767 -5.37285,-0.57767 l -232.7649,0 c -1.83673,0 -3.61717,0.27296 -5.37264,0.57767 l 23.02024,-118.98603 c 0.97338,-5.02942 5.2444,-8.55517 10.37348,-8.55517 z m -28.02108,148.12312 232.7649,0 c 5.95604,0 10.58022,4.6242 10.58022,10.58022 l 0,10.58023 0,31.74067 c 0,5.95603 -4.62418,10.58022 -10.58022,10.58022 l -232.7649,0 c -5.95604,0 -10.58022,-4.62419 -10.58022,-10.58022 l 0,-31.74067 0,-10.58023 c 0,-5.95602 4.62418,-10.58022 10.58022,-10.58022 z m 211.60446,21.16045 a 10.580223,10.580223 0 0 0 -10.58022,10.58022 10.580223,10.580223 0 0 0 10.58022,10.58023 10.580223,10.580223 0 0 0 10.58022,-10.58023 10.580223,10.580223 0 0 0 -10.58022,-10.58022 z"
         style="font-weight:400;line-height:normal;font-family:sans-serif;text-indent:0;text-align:start;text-decoration:none;text-decoration-line:none;text-decoration-style:solid;text-decoration-color:#000000;text-transform:none;block-progression:tb;white-space:normal;overflow:visible;isolation:auto;mix-blend-mode:normal" />
    </g>
  </g>
</svg>
