<?xml version="1.0"?>
<svg xmlns="http://www.w3.org/2000/svg" viewBox="0 0 16 16">
    <path style="line-height:normal;text-indent:0;text-align:start;text-decoration-line:none;text-decoration-style:solid;text-decoration-color:#000;text-transform:none;block-progression:tb;isolation:auto;mix-blend-mode:normal" d="M 3.8242188 2 C 3.1086146 2 2.4875446 2.5125185 2.3515625 3.2148438 L 1 10.201172 L 1 10.5 L 1 11 L 1 12.5 C 1 13.322531 1.6774686 14 2.5 14 L 13.5 14 C 14.322531 14 15 13.322531 15 12.5 L 15 11 L 15 10.5 L 15 10.201172 L 13.648438 3.2148438 C 13.512454 2.5125185 12.891385 2 12.175781 2 L 3.8242188 2 z M 3.8242188 3 L 12.175781 3 C 12.418177 3 12.619998 3.166622 12.666016 3.4042969 L 13.753906 9.0273438 C 13.670938 9.0128719 13.586827 9 13.5 9 L 2.5 9 C 2.413173 9 2.3290616 9.0128719 2.2460938 9.0273438 L 3.3339844 3.4042969 C 3.3800023 3.166622 3.5818227 3 3.8242188 3 z M 2.5 10 L 13.5 10 C 13.781469 10 14 10.218531 14 10.5 L 14 11 L 14 12.5 C 14 12.781469 13.781469 13 13.5 13 L 2.5 13 C 2.2185314 13 2 12.781469 2 12.5 L 2 11 L 2 10.5 C 2 10.218531 2.2185314 10 2.5 10 z M 12.5 11 A 0.5 0.5 0 0 0 12 11.5 A 0.5 0.5 0 0 0 12.5 12 A 0.5 0.5 0 0 0 13 11.5 A 0.5 0.5 0 0 0 12.5 11 z" font-weight="400" font-family="sans-serif" white-space="normal" overflow="visible"/>
</svg>
